<mxfile host="Electron" agent="Mozilla/5.0 (Macintosh; Intel Mac OS X 10_15_7) AppleWebKit/537.36 (KHTML, like Gecko) draw.io/26.0.16 Chrome/132.0.6834.196 Electron/34.2.0 Safari/537.36" version="26.0.16">
  <diagram name="Page-1" id="5An7zhzPWtjX78W8Vn6z">
    <mxGraphModel dx="4347" dy="-740" grid="1" gridSize="10" guides="1" tooltips="1" connect="1" arrows="1" fold="1" page="1" pageScale="1" pageWidth="850" pageHeight="1100" math="0" shadow="0">
      <root>
        <mxCell id="0" />
        <mxCell id="1" parent="0" />
        <mxCell id="eMaZXVgZZq-h9FBiVX7F-97" value="System Design (1Kâ€“10K concurrent users)" style="text;align=center;fontStyle=1;verticalAlign=middle;spacingLeft=3;spacingRight=3;strokeColor=none;rotatable=0;points=[[0,0.5],[1,0.5]];portConstraint=eastwest;html=1;fontSize=30;" vertex="1" parent="1">
          <mxGeometry x="340" y="3865" width="80" height="26" as="geometry" />
        </mxCell>
        <mxCell id="eMaZXVgZZq-h9FBiVX7F-98" value="&lt;font style=&quot;font-size: 20px;&quot;&gt;Challenges:&lt;/font&gt;&lt;div&gt;&lt;font style=&quot;font-size: 20px;&quot;&gt;As the user base continues to grow, the system must scale to handle millions of real-time requests and events. At this stage, we begin to experience delays in database writes due&lt;/font&gt;&lt;/div&gt;&lt;div&gt;&lt;font style=&quot;font-size: 20px;&quot;&gt;&amp;nbsp;to a high number of transactions, and tracking user&lt;/font&gt;&lt;/div&gt;&lt;div&gt;&lt;font style=&quot;font-size: 20px;&quot;&gt;&amp;nbsp;presence (online/offline) becomes more complex. Media uploads also increase drastically, adding both processing and bandwidth costs.&amp;nbsp;&lt;/font&gt;&lt;/div&gt;&lt;div style=&quot;&quot;&gt;&lt;font style=&quot;font-size: 20px;&quot;&gt;Encryption services now create additional load on the system.&lt;/font&gt;&lt;/div&gt;" style="text;align=left;fontStyle=0;verticalAlign=middle;spacingLeft=3;spacingRight=3;strokeColor=none;rotatable=0;points=[[0,0.5],[1,0.5]];portConstraint=eastwest;html=1;" vertex="1" parent="1">
          <mxGeometry x="-260" y="4090" width="80" height="26" as="geometry" />
        </mxCell>
        <mxCell id="eMaZXVgZZq-h9FBiVX7F-99" value="Solution:&lt;div&gt;To address these issues, we implement database sharding to divide data across multiple servers, improving write efficiency. We move to an event-driven architecture using Kafka to manage and process notifications&lt;/div&gt;&lt;div&gt;&amp;nbsp;asynchronously. Sorted Sets are used in Redis to track user presence&lt;/div&gt;&lt;div&gt;&amp;nbsp;more efficiently. WebSocket communication is enhanced through distributed message queues to handle massive messaging volume.&amp;nbsp;&lt;/div&gt;&lt;div style=&quot;&quot;&gt;Additionally, caching strategies are further&amp;nbsp;&lt;/div&gt;&lt;div&gt;improved to reduce latency and maintain performance at scale.&lt;/div&gt;" style="text;align=left;fontStyle=0;verticalAlign=middle;spacingLeft=3;spacingRight=3;strokeColor=none;rotatable=0;points=[[0,0.5],[1,0.5]];portConstraint=eastwest;html=1;fontSize=20;" vertex="1" parent="1">
          <mxGeometry x="-260" y="4240" width="80" height="26" as="geometry" />
        </mxCell>
        <mxCell id="eMaZXVgZZq-h9FBiVX7F-100" value="" style="shape=actor;whiteSpace=wrap;html=1;" vertex="1" parent="1">
          <mxGeometry x="467.5" y="4750" width="60" height="100" as="geometry" />
        </mxCell>
        <mxCell id="eMaZXVgZZq-h9FBiVX7F-101" style="edgeStyle=orthogonalEdgeStyle;rounded=0;orthogonalLoop=1;jettySize=auto;html=1;entryX=0;entryY=0.75;entryDx=0;entryDy=0;" edge="1" parent="1" source="eMaZXVgZZq-h9FBiVX7F-103" target="eMaZXVgZZq-h9FBiVX7F-100">
          <mxGeometry relative="1" as="geometry" />
        </mxCell>
        <mxCell id="eMaZXVgZZq-h9FBiVX7F-102" style="edgeStyle=orthogonalEdgeStyle;rounded=0;orthogonalLoop=1;jettySize=auto;html=1;" edge="1" parent="1" source="eMaZXVgZZq-h9FBiVX7F-103">
          <mxGeometry relative="1" as="geometry">
            <mxPoint x="112.5" y="4945" as="targetPoint" />
          </mxGeometry>
        </mxCell>
        <mxCell id="eMaZXVgZZq-h9FBiVX7F-103" value="devices" style="sketch=0;outlineConnect=0;gradientColor=none;fontColor=#545B64;strokeColor=none;fillColor=#879196;dashed=0;verticalLabelPosition=bottom;verticalAlign=top;align=center;html=1;fontSize=12;fontStyle=0;aspect=fixed;shape=mxgraph.aws4.illustration_devices;pointerEvents=1" vertex="1" parent="1">
          <mxGeometry x="217.5" y="4715" width="100" height="73" as="geometry" />
        </mxCell>
        <mxCell id="eMaZXVgZZq-h9FBiVX7F-104" style="edgeStyle=orthogonalEdgeStyle;rounded=0;orthogonalLoop=1;jettySize=auto;html=1;entryX=1;entryY=0.75;entryDx=0;entryDy=0;" edge="1" parent="1" source="eMaZXVgZZq-h9FBiVX7F-105" target="eMaZXVgZZq-h9FBiVX7F-100">
          <mxGeometry relative="1" as="geometry" />
        </mxCell>
        <mxCell id="eMaZXVgZZq-h9FBiVX7F-105" value="" style="sketch=0;verticalLabelPosition=bottom;sketch=0;aspect=fixed;html=1;verticalAlign=top;strokeColor=none;fillColor=#000000;align=center;outlineConnect=0;pointerEvents=1;shape=mxgraph.citrix2.tablet;" vertex="1" parent="1">
          <mxGeometry x="662.29" y="4695" width="36.925000000000004" height="50" as="geometry" />
        </mxCell>
        <mxCell id="eMaZXVgZZq-h9FBiVX7F-106" style="edgeStyle=orthogonalEdgeStyle;rounded=0;orthogonalLoop=1;jettySize=auto;html=1;" edge="1" parent="1" source="eMaZXVgZZq-h9FBiVX7F-107">
          <mxGeometry relative="1" as="geometry">
            <mxPoint x="497.5" y="4855" as="targetPoint" />
          </mxGeometry>
        </mxCell>
        <mxCell id="eMaZXVgZZq-h9FBiVX7F-107" value="" style="sketch=0;verticalLabelPosition=bottom;sketch=0;aspect=fixed;html=1;verticalAlign=top;strokeColor=none;fillColor=#000000;align=center;outlineConnect=0;pointerEvents=1;shape=mxgraph.citrix2.mobile;" vertex="1" parent="1">
          <mxGeometry x="682.5" y="4880" width="25.255" height="50" as="geometry" />
        </mxCell>
        <mxCell id="eMaZXVgZZq-h9FBiVX7F-108" style="edgeStyle=orthogonalEdgeStyle;rounded=0;orthogonalLoop=1;jettySize=auto;html=1;" edge="1" parent="1" source="eMaZXVgZZq-h9FBiVX7F-109">
          <mxGeometry relative="1" as="geometry">
            <mxPoint x="107.5" y="4945" as="targetPoint" />
          </mxGeometry>
        </mxCell>
        <mxCell id="eMaZXVgZZq-h9FBiVX7F-109" value="" style="outlineConnect=0;dashed=0;verticalLabelPosition=bottom;verticalAlign=top;align=center;html=1;shape=mxgraph.aws3.data_encryption_key;fillColor=#7D7C7C;gradientColor=none;" vertex="1" parent="1">
          <mxGeometry x="392.5" y="4930" width="46.5" height="60" as="geometry" />
        </mxCell>
        <mxCell id="eMaZXVgZZq-h9FBiVX7F-110" style="edgeStyle=orthogonalEdgeStyle;rounded=0;orthogonalLoop=1;jettySize=auto;html=1;entryX=1;entryY=0.5;entryDx=0;entryDy=0;entryPerimeter=0;" edge="1" parent="1" source="eMaZXVgZZq-h9FBiVX7F-107" target="eMaZXVgZZq-h9FBiVX7F-109">
          <mxGeometry relative="1" as="geometry">
            <Array as="points">
              <mxPoint x="695.5" y="4960" />
            </Array>
          </mxGeometry>
        </mxCell>
        <mxCell id="eMaZXVgZZq-h9FBiVX7F-111" value="" style="outlineConnect=0;dashed=0;verticalLabelPosition=bottom;verticalAlign=top;align=center;html=1;shape=mxgraph.aws3.data_encryption_key;fillColor=#7D7C7C;gradientColor=none;" vertex="1" parent="1">
          <mxGeometry x="397.5" y="4935" width="46.5" height="60" as="geometry" />
        </mxCell>
        <mxCell id="eMaZXVgZZq-h9FBiVX7F-112" value="" style="image;aspect=fixed;html=1;points=[];align=center;fontSize=12;image=img/lib/azure2/databases/Cache_Redis.svg;" vertex="1" parent="1">
          <mxGeometry x="807.5" y="4772.8099999999995" width="95" height="77.19" as="geometry" />
        </mxCell>
        <mxCell id="eMaZXVgZZq-h9FBiVX7F-113" value="Redis Cache" style="text;align=center;fontStyle=0;verticalAlign=middle;spacingLeft=3;spacingRight=3;strokeColor=none;rotatable=0;points=[[0,0.5],[1,0.5]];portConstraint=eastwest;html=1;" vertex="1" parent="1">
          <mxGeometry x="815" y="4885" width="80" height="26" as="geometry" />
        </mxCell>
        <mxCell id="eMaZXVgZZq-h9FBiVX7F-114" value="VoIP&lt;div&gt;Protocol&lt;/div&gt;" style="text;html=1;align=center;verticalAlign=middle;whiteSpace=wrap;rounded=0;" vertex="1" parent="1">
          <mxGeometry x="662.5" y="4796.4" width="60" height="30" as="geometry" />
        </mxCell>
        <mxCell id="eMaZXVgZZq-h9FBiVX7F-115" value="" style="image;aspect=fixed;html=1;points=[];align=center;fontSize=12;image=img/lib/azure2/general/Storage_Queue.svg;" vertex="1" parent="1">
          <mxGeometry x="-52.5" y="4833" width="64" height="52" as="geometry" />
        </mxCell>
        <mxCell id="eMaZXVgZZq-h9FBiVX7F-116" value="&lt;div&gt;Notification Queue&amp;nbsp;&amp;nbsp;&lt;/div&gt;&lt;div&gt;(For Offline Crisis Alerts)&lt;/div&gt;&lt;div&gt;&lt;br&gt;&lt;/div&gt;" style="text;align=center;fontStyle=0;verticalAlign=middle;spacingLeft=3;spacingRight=3;strokeColor=none;rotatable=0;points=[[0,0.5],[1,0.5]];portConstraint=eastwest;html=1;" vertex="1" parent="1">
          <mxGeometry x="-68.5" y="4787" width="80" height="26" as="geometry" />
        </mxCell>
        <mxCell id="eMaZXVgZZq-h9FBiVX7F-117" style="edgeStyle=orthogonalEdgeStyle;rounded=0;orthogonalLoop=1;jettySize=auto;html=1;exitX=1;exitY=0.5;exitDx=0;exitDy=0;" edge="1" parent="1" source="eMaZXVgZZq-h9FBiVX7F-118" target="eMaZXVgZZq-h9FBiVX7F-163">
          <mxGeometry relative="1" as="geometry" />
        </mxCell>
        <mxCell id="eMaZXVgZZq-h9FBiVX7F-118" value="" style="rounded=0;whiteSpace=wrap;html=1;fillColor=none;" vertex="1" parent="1">
          <mxGeometry x="-105" y="4565" width="1235" height="480" as="geometry" />
        </mxCell>
        <mxCell id="eMaZXVgZZq-h9FBiVX7F-119" value="" style="outlineConnect=0;dashed=0;verticalLabelPosition=bottom;verticalAlign=top;align=center;html=1;shape=mxgraph.aws3.postgre_sql_instance;fillColor=#2E73B8;gradientColor=none;" vertex="1" parent="1">
          <mxGeometry x="495" y="6182" width="60" height="63" as="geometry" />
        </mxCell>
        <mxCell id="eMaZXVgZZq-h9FBiVX7F-120" value="&lt;div&gt;PostgreSQL Database&amp;nbsp;&amp;nbsp;&lt;/div&gt;&lt;div&gt;(User Data, profiles,resources)&lt;/div&gt;&lt;div&gt;&lt;br&gt;&lt;/div&gt;" style="text;align=center;fontStyle=1;verticalAlign=middle;spacingLeft=3;spacingRight=3;strokeColor=none;rotatable=0;points=[[0,0.5],[1,0.5]];portConstraint=eastwest;html=1;" vertex="1" parent="1">
          <mxGeometry x="360" y="6295" width="80" height="26" as="geometry" />
        </mxCell>
        <mxCell id="eMaZXVgZZq-h9FBiVX7F-121" value="" style="outlineConnect=0;dashed=0;verticalLabelPosition=bottom;verticalAlign=top;align=center;html=1;shape=mxgraph.aws3.s3;fillColor=#E05243;gradientColor=none;" vertex="1" parent="1">
          <mxGeometry x="855" y="6185" width="76.5" height="93" as="geometry" />
        </mxCell>
        <mxCell id="eMaZXVgZZq-h9FBiVX7F-122" value="&lt;div&gt;S3 Bucket&amp;nbsp;&amp;nbsp;&lt;/div&gt;&lt;div&gt;(Media Files like alerts, shelter photos)&lt;/div&gt;" style="text;align=center;fontStyle=1;verticalAlign=middle;spacingLeft=3;spacingRight=3;strokeColor=none;rotatable=0;points=[[0,0.5],[1,0.5]];portConstraint=eastwest;html=1;" vertex="1" parent="1">
          <mxGeometry x="840" y="6295" width="80" height="26" as="geometry" />
        </mxCell>
        <mxCell id="eMaZXVgZZq-h9FBiVX7F-123" style="edgeStyle=orthogonalEdgeStyle;rounded=0;orthogonalLoop=1;jettySize=auto;html=1;exitX=0;exitY=0.21;exitDx=0;exitDy=0;exitPerimeter=0;" edge="1" parent="1" source="eMaZXVgZZq-h9FBiVX7F-125" target="eMaZXVgZZq-h9FBiVX7F-119">
          <mxGeometry relative="1" as="geometry" />
        </mxCell>
        <mxCell id="eMaZXVgZZq-h9FBiVX7F-124" style="edgeStyle=orthogonalEdgeStyle;rounded=0;orthogonalLoop=1;jettySize=auto;html=1;exitX=1;exitY=0.21;exitDx=0;exitDy=0;exitPerimeter=0;" edge="1" parent="1" source="eMaZXVgZZq-h9FBiVX7F-125" target="eMaZXVgZZq-h9FBiVX7F-175">
          <mxGeometry relative="1" as="geometry" />
        </mxCell>
        <mxCell id="eMaZXVgZZq-h9FBiVX7F-125" value="" style="outlineConnect=0;dashed=0;verticalLabelPosition=bottom;verticalAlign=top;align=center;html=1;shape=mxgraph.aws3.ec2;fillColor=#F58534;gradientColor=none;" vertex="1" parent="1">
          <mxGeometry x="660" y="5975" width="76.5" height="93" as="geometry" />
        </mxCell>
        <mxCell id="eMaZXVgZZq-h9FBiVX7F-126" value="EC2,App logic:Auth,Maps.Weather,)" style="text;align=center;fontStyle=1;verticalAlign=middle;spacingLeft=3;spacingRight=3;strokeColor=none;rotatable=0;points=[[0,0.5],[1,0.5]];portConstraint=eastwest;html=1;" vertex="1" parent="1">
          <mxGeometry x="687.5" y="6074" width="80" height="26" as="geometry" />
        </mxCell>
        <mxCell id="eMaZXVgZZq-h9FBiVX7F-127" style="edgeStyle=orthogonalEdgeStyle;rounded=0;orthogonalLoop=1;jettySize=auto;html=1;entryX=0;entryY=0.5;entryDx=0;entryDy=0;entryPerimeter=0;" edge="1" parent="1" source="eMaZXVgZZq-h9FBiVX7F-119" target="eMaZXVgZZq-h9FBiVX7F-125">
          <mxGeometry relative="1" as="geometry" />
        </mxCell>
        <mxCell id="eMaZXVgZZq-h9FBiVX7F-128" style="edgeStyle=orthogonalEdgeStyle;rounded=0;orthogonalLoop=1;jettySize=auto;html=1;entryX=1;entryY=0.5;entryDx=0;entryDy=0;entryPerimeter=0;" edge="1" parent="1" source="eMaZXVgZZq-h9FBiVX7F-125" target="eMaZXVgZZq-h9FBiVX7F-121">
          <mxGeometry relative="1" as="geometry" />
        </mxCell>
        <mxCell id="eMaZXVgZZq-h9FBiVX7F-129" value="Master" style="shape=cylinder3;whiteSpace=wrap;html=1;boundedLbl=1;backgroundOutline=1;size=15;" vertex="1" parent="1">
          <mxGeometry x="100" y="6020" width="60" height="80" as="geometry" />
        </mxCell>
        <mxCell id="eMaZXVgZZq-h9FBiVX7F-130" value="Slaves" style="shape=cylinder3;whiteSpace=wrap;html=1;boundedLbl=1;backgroundOutline=1;size=15;" vertex="1" parent="1">
          <mxGeometry x="-20" y="6160" width="60" height="80" as="geometry" />
        </mxCell>
        <mxCell id="eMaZXVgZZq-h9FBiVX7F-131" value="Slaves" style="shape=cylinder3;whiteSpace=wrap;html=1;boundedLbl=1;backgroundOutline=1;size=15;" vertex="1" parent="1">
          <mxGeometry x="225" y="6165" width="60" height="80" as="geometry" />
        </mxCell>
        <mxCell id="eMaZXVgZZq-h9FBiVX7F-132" value="Slaves" style="shape=cylinder3;whiteSpace=wrap;html=1;boundedLbl=1;backgroundOutline=1;size=15;" vertex="1" parent="1">
          <mxGeometry x="105" y="6165" width="60" height="80" as="geometry" />
        </mxCell>
        <mxCell id="eMaZXVgZZq-h9FBiVX7F-133" value="Replication" style="text;align=center;fontStyle=1;verticalAlign=middle;spacingLeft=3;spacingRight=3;strokeColor=none;rotatable=0;points=[[0,0.5],[1,0.5]];portConstraint=eastwest;html=1;" vertex="1" parent="1">
          <mxGeometry x="10" y="6047" width="80" height="26" as="geometry" />
        </mxCell>
        <mxCell id="eMaZXVgZZq-h9FBiVX7F-134" style="edgeStyle=orthogonalEdgeStyle;rounded=0;orthogonalLoop=1;jettySize=auto;html=1;exitX=1;exitY=0.5;exitDx=0;exitDy=0;" edge="1" parent="1" target="eMaZXVgZZq-h9FBiVX7F-119">
          <mxGeometry relative="1" as="geometry">
            <Array as="points">
              <mxPoint x="330" y="6130" />
              <mxPoint x="330" y="6231" />
            </Array>
            <mxPoint x="325" y="6133" as="sourcePoint" />
          </mxGeometry>
        </mxCell>
        <mxCell id="eMaZXVgZZq-h9FBiVX7F-135" style="edgeStyle=orthogonalEdgeStyle;rounded=0;orthogonalLoop=1;jettySize=auto;html=1;exitX=0.5;exitY=1;exitDx=0;exitDy=0;exitPerimeter=0;entryX=1.008;entryY=0.45;entryDx=0;entryDy=0;entryPerimeter=0;" edge="1" parent="1" source="eMaZXVgZZq-h9FBiVX7F-119">
          <mxGeometry relative="1" as="geometry">
            <Array as="points">
              <mxPoint x="398" y="6283" />
              <mxPoint x="344" y="6283" />
              <mxPoint x="344" y="6117" />
            </Array>
            <mxPoint x="328.2800000000002" y="6120" as="targetPoint" />
          </mxGeometry>
        </mxCell>
        <mxCell id="eMaZXVgZZq-h9FBiVX7F-136" style="edgeStyle=orthogonalEdgeStyle;rounded=0;orthogonalLoop=1;jettySize=auto;html=1;exitX=0.95;exitY=0.95;exitDx=0;exitDy=0;exitPerimeter=0;entryX=0;entryY=0.5;entryDx=0;entryDy=0;entryPerimeter=0;" edge="1" parent="1" source="eMaZXVgZZq-h9FBiVX7F-119" target="eMaZXVgZZq-h9FBiVX7F-121">
          <mxGeometry relative="1" as="geometry" />
        </mxCell>
        <mxCell id="eMaZXVgZZq-h9FBiVX7F-137" value="Websocket" style="shape=step;perimeter=stepPerimeter;whiteSpace=wrap;html=1;fixedSize=1;" vertex="1" parent="1">
          <mxGeometry x="-188.5" y="5540" width="188.5" height="120" as="geometry" />
        </mxCell>
        <mxCell id="eMaZXVgZZq-h9FBiVX7F-138" value="Websocket" style="shape=step;perimeter=stepPerimeter;whiteSpace=wrap;html=1;fixedSize=1;" vertex="1" parent="1">
          <mxGeometry x="360" y="5540" width="170" height="125" as="geometry" />
        </mxCell>
        <mxCell id="eMaZXVgZZq-h9FBiVX7F-139" value="Websoket" style="shape=step;perimeter=stepPerimeter;whiteSpace=wrap;html=1;fixedSize=1;" vertex="1" parent="1">
          <mxGeometry x="880" y="5540" width="175" height="115" as="geometry" />
        </mxCell>
        <mxCell id="eMaZXVgZZq-h9FBiVX7F-140" style="edgeStyle=orthogonalEdgeStyle;rounded=0;orthogonalLoop=1;jettySize=auto;html=1;" edge="1" parent="1" source="eMaZXVgZZq-h9FBiVX7F-141" target="eMaZXVgZZq-h9FBiVX7F-138">
          <mxGeometry relative="1" as="geometry" />
        </mxCell>
        <mxCell id="eMaZXVgZZq-h9FBiVX7F-141" value="" style="image;aspect=fixed;html=1;points=[];align=center;fontSize=12;image=img/lib/azure2/general/Storage_Queue.svg;" vertex="1" parent="1">
          <mxGeometry x="604.4" y="5294.21" width="152.7" height="124.07" as="geometry" />
        </mxCell>
        <mxCell id="eMaZXVgZZq-h9FBiVX7F-142" style="edgeStyle=orthogonalEdgeStyle;rounded=0;orthogonalLoop=1;jettySize=auto;html=1;entryX=0.25;entryY=0;entryDx=0;entryDy=0;" edge="1" parent="1" source="eMaZXVgZZq-h9FBiVX7F-143" target="eMaZXVgZZq-h9FBiVX7F-138">
          <mxGeometry relative="1" as="geometry" />
        </mxCell>
        <mxCell id="eMaZXVgZZq-h9FBiVX7F-143" value="" style="image;aspect=fixed;html=1;points=[];align=center;fontSize=12;image=img/lib/azure2/general/Storage_Queue.svg;" vertex="1" parent="1">
          <mxGeometry x="40" y="5295" width="160" height="130" as="geometry" />
        </mxCell>
        <mxCell id="eMaZXVgZZq-h9FBiVX7F-144" value="" style="image;aspect=fixed;html=1;points=[];align=center;fontSize=12;image=img/lib/azure2/general/Storage_Queue.svg;" vertex="1" parent="1">
          <mxGeometry x="-282.92" y="5290" width="152.92" height="124.25" as="geometry" />
        </mxCell>
        <mxCell id="eMaZXVgZZq-h9FBiVX7F-145" style="edgeStyle=orthogonalEdgeStyle;rounded=0;orthogonalLoop=1;jettySize=auto;html=1;" edge="1" parent="1" source="eMaZXVgZZq-h9FBiVX7F-146" target="eMaZXVgZZq-h9FBiVX7F-139">
          <mxGeometry relative="1" as="geometry" />
        </mxCell>
        <mxCell id="eMaZXVgZZq-h9FBiVX7F-146" value="" style="image;aspect=fixed;html=1;points=[];align=center;fontSize=12;image=img/lib/azure2/general/Storage_Queue.svg;" vertex="1" parent="1">
          <mxGeometry x="935" y="5301.719999999999" width="143.46" height="116.56" as="geometry" />
        </mxCell>
        <mxCell id="eMaZXVgZZq-h9FBiVX7F-147" style="edgeStyle=orthogonalEdgeStyle;rounded=0;orthogonalLoop=1;jettySize=auto;html=1;entryX=0.332;entryY=0;entryDx=0;entryDy=0;entryPerimeter=0;" edge="1" parent="1" source="eMaZXVgZZq-h9FBiVX7F-144" target="eMaZXVgZZq-h9FBiVX7F-137">
          <mxGeometry relative="1" as="geometry" />
        </mxCell>
        <mxCell id="eMaZXVgZZq-h9FBiVX7F-148" style="edgeStyle=orthogonalEdgeStyle;rounded=0;orthogonalLoop=1;jettySize=auto;html=1;entryX=0.65;entryY=0;entryDx=0;entryDy=0;entryPerimeter=0;" edge="1" parent="1">
          <mxGeometry relative="1" as="geometry">
            <mxPoint x="37.47" y="5360" as="sourcePoint" />
            <mxPoint x="-68.50499999999991" y="5540" as="targetPoint" />
          </mxGeometry>
        </mxCell>
        <mxCell id="eMaZXVgZZq-h9FBiVX7F-149" style="edgeStyle=orthogonalEdgeStyle;rounded=0;orthogonalLoop=1;jettySize=auto;html=1;entryX=0.114;entryY=-0.035;entryDx=0;entryDy=0;entryPerimeter=0;" edge="1" parent="1" source="eMaZXVgZZq-h9FBiVX7F-141" target="eMaZXVgZZq-h9FBiVX7F-139">
          <mxGeometry relative="1" as="geometry" />
        </mxCell>
        <mxCell id="eMaZXVgZZq-h9FBiVX7F-150" style="edgeStyle=orthogonalEdgeStyle;rounded=0;orthogonalLoop=1;jettySize=auto;html=1;" edge="1" parent="1" source="eMaZXVgZZq-h9FBiVX7F-152" target="eMaZXVgZZq-h9FBiVX7F-143">
          <mxGeometry relative="1" as="geometry" />
        </mxCell>
        <mxCell id="eMaZXVgZZq-h9FBiVX7F-151" style="edgeStyle=orthogonalEdgeStyle;rounded=0;orthogonalLoop=1;jettySize=auto;html=1;" edge="1" parent="1" source="eMaZXVgZZq-h9FBiVX7F-152" target="eMaZXVgZZq-h9FBiVX7F-118">
          <mxGeometry relative="1" as="geometry" />
        </mxCell>
        <mxCell id="eMaZXVgZZq-h9FBiVX7F-152" value="" style="image;sketch=0;aspect=fixed;html=1;points=[];align=center;fontSize=12;image=img/lib/mscae/Load_Balancer_feature.svg;" vertex="1" parent="1">
          <mxGeometry x="-95" y="5145" width="85" height="85" as="geometry" />
        </mxCell>
        <mxCell id="eMaZXVgZZq-h9FBiVX7F-153" style="edgeStyle=orthogonalEdgeStyle;rounded=0;orthogonalLoop=1;jettySize=auto;html=1;" edge="1" parent="1" source="eMaZXVgZZq-h9FBiVX7F-154">
          <mxGeometry relative="1" as="geometry">
            <mxPoint x="645" y="5300" as="targetPoint" />
          </mxGeometry>
        </mxCell>
        <mxCell id="eMaZXVgZZq-h9FBiVX7F-154" value="" style="image;sketch=0;aspect=fixed;html=1;points=[];align=center;fontSize=12;image=img/lib/mscae/Load_Balancer_feature.svg;" vertex="1" parent="1">
          <mxGeometry x="805" y="5145" width="75" height="75" as="geometry" />
        </mxCell>
        <mxCell id="eMaZXVgZZq-h9FBiVX7F-155" style="edgeStyle=orthogonalEdgeStyle;rounded=0;orthogonalLoop=1;jettySize=auto;html=1;entryX=0.481;entryY=0.037;entryDx=0;entryDy=0;entryPerimeter=0;" edge="1" parent="1" source="eMaZXVgZZq-h9FBiVX7F-154" target="eMaZXVgZZq-h9FBiVX7F-146">
          <mxGeometry relative="1" as="geometry" />
        </mxCell>
        <mxCell id="eMaZXVgZZq-h9FBiVX7F-156" style="edgeStyle=orthogonalEdgeStyle;rounded=0;orthogonalLoop=1;jettySize=auto;html=1;entryX=0.411;entryY=0;entryDx=0;entryDy=0;entryPerimeter=0;" edge="1" parent="1" source="eMaZXVgZZq-h9FBiVX7F-152" target="eMaZXVgZZq-h9FBiVX7F-144">
          <mxGeometry relative="1" as="geometry" />
        </mxCell>
        <mxCell id="eMaZXVgZZq-h9FBiVX7F-157" style="edgeStyle=orthogonalEdgeStyle;rounded=0;orthogonalLoop=1;jettySize=auto;html=1;entryX=0.522;entryY=1.002;entryDx=0;entryDy=0;entryPerimeter=0;" edge="1" parent="1" source="eMaZXVgZZq-h9FBiVX7F-154" target="eMaZXVgZZq-h9FBiVX7F-118">
          <mxGeometry relative="1" as="geometry" />
        </mxCell>
        <mxCell id="eMaZXVgZZq-h9FBiVX7F-158" value="&lt;span style=&quot;font-size: 25px;&quot;&gt;Load balancer&lt;/span&gt;&lt;div&gt;&lt;span style=&quot;font-size: 25px;&quot;&gt;NGINX&lt;/span&gt;&lt;/div&gt;" style="text;html=1;align=center;verticalAlign=middle;whiteSpace=wrap;rounded=0;" vertex="1" parent="1">
          <mxGeometry x="360" y="5155" width="60" height="30" as="geometry" />
        </mxCell>
        <mxCell id="eMaZXVgZZq-h9FBiVX7F-159" value="" style="sketch=0;pointerEvents=1;shadow=0;dashed=0;html=1;strokeColor=none;fillColor=#505050;labelPosition=center;verticalLabelPosition=bottom;verticalAlign=top;outlineConnect=0;align=center;shape=mxgraph.office.communications.queue_viewer;" vertex="1" parent="1">
          <mxGeometry x="-210" y="6065" width="105" height="90" as="geometry" />
        </mxCell>
        <mxCell id="eMaZXVgZZq-h9FBiVX7F-160" value="Sharded Write Replica" style="text;html=1;align=center;verticalAlign=middle;whiteSpace=wrap;rounded=0;fontSize=20;" vertex="1" parent="1">
          <mxGeometry x="-190" y="6190" width="60" height="30" as="geometry" />
        </mxCell>
        <mxCell id="eMaZXVgZZq-h9FBiVX7F-161" value="" style="rounded=0;whiteSpace=wrap;html=1;fillColor=none;" vertex="1" parent="1">
          <mxGeometry x="-346" y="5975" width="670" height="315" as="geometry" />
        </mxCell>
        <mxCell id="eMaZXVgZZq-h9FBiVX7F-162" value="" style="image;aspect=fixed;html=1;points=[];align=center;fontSize=12;image=img/lib/azure2/app_services/CDN_Profiles.svg;" vertex="1" parent="1">
          <mxGeometry x="1410" y="4702" width="144.5" height="85" as="geometry" />
        </mxCell>
        <mxCell id="eMaZXVgZZq-h9FBiVX7F-163" value="" style="image;aspect=fixed;html=1;points=[];align=center;fontSize=12;image=img/lib/azure2/app_services/CDN_Profiles.svg;" vertex="1" parent="1">
          <mxGeometry x="1385" y="4940" width="153" height="90" as="geometry" />
        </mxCell>
        <mxCell id="eMaZXVgZZq-h9FBiVX7F-164" style="edgeStyle=orthogonalEdgeStyle;rounded=0;orthogonalLoop=1;jettySize=auto;html=1;entryX=0.028;entryY=0.588;entryDx=0;entryDy=0;entryPerimeter=0;" edge="1" parent="1" source="eMaZXVgZZq-h9FBiVX7F-118" target="eMaZXVgZZq-h9FBiVX7F-162">
          <mxGeometry relative="1" as="geometry">
            <Array as="points">
              <mxPoint x="1270" y="4780" />
              <mxPoint x="1270" y="4752" />
            </Array>
          </mxGeometry>
        </mxCell>
        <mxCell id="eMaZXVgZZq-h9FBiVX7F-165" style="edgeStyle=orthogonalEdgeStyle;rounded=0;orthogonalLoop=1;jettySize=auto;html=1;entryX=0.49;entryY=1.022;entryDx=0;entryDy=0;entryPerimeter=0;" edge="1" parent="1" source="eMaZXVgZZq-h9FBiVX7F-161" target="eMaZXVgZZq-h9FBiVX7F-163">
          <mxGeometry relative="1" as="geometry">
            <Array as="points">
              <mxPoint x="-11" y="5890" />
              <mxPoint x="1460" y="5890" />
            </Array>
          </mxGeometry>
        </mxCell>
        <mxCell id="eMaZXVgZZq-h9FBiVX7F-166" style="edgeStyle=orthogonalEdgeStyle;rounded=0;orthogonalLoop=1;jettySize=auto;html=1;entryX=0.213;entryY=0.006;entryDx=0;entryDy=0;entryPerimeter=0;" edge="1" parent="1" source="eMaZXVgZZq-h9FBiVX7F-137">
          <mxGeometry relative="1" as="geometry">
            <mxPoint x="-93.34999999999991" y="5774.08" as="targetPoint" />
          </mxGeometry>
        </mxCell>
        <mxCell id="eMaZXVgZZq-h9FBiVX7F-167" style="edgeStyle=orthogonalEdgeStyle;rounded=0;orthogonalLoop=1;jettySize=auto;html=1;entryX=0.473;entryY=0;entryDx=0;entryDy=0;entryPerimeter=0;" edge="1" parent="1" source="eMaZXVgZZq-h9FBiVX7F-138">
          <mxGeometry relative="1" as="geometry">
            <mxPoint x="439.64999999999964" y="5770" as="targetPoint" />
          </mxGeometry>
        </mxCell>
        <mxCell id="eMaZXVgZZq-h9FBiVX7F-168" style="edgeStyle=orthogonalEdgeStyle;rounded=0;orthogonalLoop=1;jettySize=auto;html=1;entryX=0.729;entryY=0.003;entryDx=0;entryDy=0;entryPerimeter=0;" edge="1" parent="1" source="eMaZXVgZZq-h9FBiVX7F-139">
          <mxGeometry relative="1" as="geometry">
            <mxPoint x="964.4499999999998" y="5772.040000000001" as="targetPoint" />
          </mxGeometry>
        </mxCell>
        <mxCell id="eMaZXVgZZq-h9FBiVX7F-212" style="edgeStyle=orthogonalEdgeStyle;rounded=0;orthogonalLoop=1;jettySize=auto;html=1;entryX=0;entryY=0.5;entryDx=0;entryDy=0;" edge="1" parent="1" source="eMaZXVgZZq-h9FBiVX7F-169" target="eMaZXVgZZq-h9FBiVX7F-208">
          <mxGeometry relative="1" as="geometry" />
        </mxCell>
        <mxCell id="eMaZXVgZZq-h9FBiVX7F-169" value="" style="rounded=0;whiteSpace=wrap;html=1;fillColor=none;" vertex="1" parent="1">
          <mxGeometry x="-425" y="5455" width="1630" height="245" as="geometry" />
        </mxCell>
        <mxCell id="eMaZXVgZZq-h9FBiVX7F-170" value="Only if Pacific north CDN&lt;div&gt;crashes or content&amp;nbsp;&lt;/div&gt;&lt;div&gt;requested is not found&lt;/div&gt;" style="text;align=center;fontStyle=0;verticalAlign=middle;spacingLeft=3;spacingRight=3;strokeColor=none;rotatable=0;points=[[0,0.5],[1,0.5]];portConstraint=eastwest;html=1;fontSize=30;" vertex="1" parent="1">
          <mxGeometry x="1245" y="5104" width="80" height="26" as="geometry" />
        </mxCell>
        <mxCell id="eMaZXVgZZq-h9FBiVX7F-171" value="Pacific north" style="text;align=center;fontStyle=1;verticalAlign=middle;spacingLeft=3;spacingRight=3;strokeColor=none;rotatable=0;points=[[0,0.5],[1,0.5]];portConstraint=eastwest;html=1;" vertex="1" parent="1">
          <mxGeometry x="1435" y="4660" width="80" height="26" as="geometry" />
        </mxCell>
        <mxCell id="eMaZXVgZZq-h9FBiVX7F-172" value="Pacific west" style="text;align=center;fontStyle=1;verticalAlign=middle;spacingLeft=3;spacingRight=3;strokeColor=none;rotatable=0;points=[[0,0.5],[1,0.5]];portConstraint=eastwest;html=1;" vertex="1" parent="1">
          <mxGeometry x="1430" y="4895" width="80" height="26" as="geometry" />
        </mxCell>
        <mxCell id="eMaZXVgZZq-h9FBiVX7F-173" value="CDN" style="text;align=center;fontStyle=1;verticalAlign=middle;spacingLeft=3;spacingRight=3;strokeColor=none;rotatable=0;points=[[0,0.5],[1,0.5]];portConstraint=eastwest;html=1;" vertex="1" parent="1">
          <mxGeometry x="1560" y="4785" width="80" height="26" as="geometry" />
        </mxCell>
        <mxCell id="eMaZXVgZZq-h9FBiVX7F-174" value="CDN" style="text;html=1;align=center;verticalAlign=middle;whiteSpace=wrap;rounded=0;" vertex="1" parent="1">
          <mxGeometry x="1570" y="4995" width="60" height="30" as="geometry" />
        </mxCell>
        <mxCell id="eMaZXVgZZq-h9FBiVX7F-175" value="" style="sketch=0;html=1;aspect=fixed;strokeColor=none;shadow=0;fillColor=#3B8DF1;verticalAlign=top;labelPosition=center;verticalLabelPosition=bottom;shape=mxgraph.gcp2.maps_api" vertex="1" parent="1">
          <mxGeometry x="1226.88" y="6010" width="61" height="100" as="geometry" />
        </mxCell>
        <mxCell id="eMaZXVgZZq-h9FBiVX7F-176" value="" style="aspect=fixed;sketch=0;html=1;dashed=0;whitespace=wrap;verticalLabelPosition=bottom;verticalAlign=top;fillColor=#2875E2;strokeColor=#ffffff;points=[[0.005,0.63,0],[0.1,0.2,0],[0.9,0.2,0],[0.5,0,0],[0.995,0.63,0],[0.72,0.99,0],[0.5,1,0],[0.28,0.99,0]];shape=mxgraph.kubernetes.icon2;kubernetesLabel=1;prIcon=api" vertex="1" parent="1">
          <mxGeometry x="1225" y="6215" width="88.54" height="85" as="geometry" />
        </mxCell>
        <mxCell id="eMaZXVgZZq-h9FBiVX7F-177" value="Weather API" style="text;align=center;fontStyle=1;verticalAlign=middle;spacingLeft=3;spacingRight=3;strokeColor=none;rotatable=0;points=[[0,0.5],[1,0.5]];portConstraint=eastwest;html=1;" vertex="1" parent="1">
          <mxGeometry x="1220" y="6315" width="80" height="26" as="geometry" />
        </mxCell>
        <mxCell id="eMaZXVgZZq-h9FBiVX7F-178" value="Google Maps API" style="text;align=center;fontStyle=1;verticalAlign=middle;spacingLeft=3;spacingRight=3;strokeColor=none;rotatable=0;points=[[0,0.5],[1,0.5]];portConstraint=eastwest;html=1;" vertex="1" parent="1">
          <mxGeometry x="1217.38" y="6129" width="80" height="26" as="geometry" />
        </mxCell>
        <mxCell id="eMaZXVgZZq-h9FBiVX7F-179" style="edgeStyle=orthogonalEdgeStyle;rounded=0;orthogonalLoop=1;jettySize=auto;html=1;exitX=0;exitY=0.5;exitDx=0;exitDy=0;entryX=0.169;entryY=0.471;entryDx=0;entryDy=0;entryPerimeter=0;" edge="1" parent="1" source="eMaZXVgZZq-h9FBiVX7F-126" target="eMaZXVgZZq-h9FBiVX7F-176">
          <mxGeometry relative="1" as="geometry" />
        </mxCell>
        <mxCell id="eMaZXVgZZq-h9FBiVX7F-180" value="API Call - Resource Locations" style="text;align=center;fontStyle=1;verticalAlign=middle;spacingLeft=3;spacingRight=3;strokeColor=none;rotatable=0;points=[[0,0.5],[1,0.5]];portConstraint=eastwest;html=1;" vertex="1" parent="1">
          <mxGeometry x="1090" y="5990" width="80" height="26" as="geometry" />
        </mxCell>
        <mxCell id="eMaZXVgZZq-h9FBiVX7F-181" value="API Call - Weather Alerts" style="text;align=center;fontStyle=1;verticalAlign=middle;spacingLeft=3;spacingRight=3;strokeColor=none;rotatable=0;points=[[0,0.5],[1,0.5]];portConstraint=eastwest;html=1;" vertex="1" parent="1">
          <mxGeometry x="1105" y="6240" width="80" height="26" as="geometry" />
        </mxCell>
        <mxCell id="eMaZXVgZZq-h9FBiVX7F-182" value="" style="rounded=0;whiteSpace=wrap;html=1;fillColor=none;" vertex="1" parent="1">
          <mxGeometry x="-455" y="5770" width="1980" height="690" as="geometry" />
        </mxCell>
        <mxCell id="eMaZXVgZZq-h9FBiVX7F-183" value="" style="outlineConnect=0;dashed=0;verticalLabelPosition=bottom;verticalAlign=top;align=center;html=1;shape=mxgraph.aws3.postgre_sql_instance;fillColor=#2E73B8;gradientColor=none;" vertex="1" parent="1">
          <mxGeometry x="2370" y="5472" width="60" height="63" as="geometry" />
        </mxCell>
        <mxCell id="eMaZXVgZZq-h9FBiVX7F-184" value="&lt;div&gt;PostgreSQL Database&amp;nbsp;&amp;nbsp;&lt;/div&gt;&lt;div&gt;(User Data, profiles,resources)&lt;/div&gt;&lt;div&gt;&lt;br&gt;&lt;/div&gt;" style="text;align=center;fontStyle=1;verticalAlign=middle;spacingLeft=3;spacingRight=3;strokeColor=none;rotatable=0;points=[[0,0.5],[1,0.5]];portConstraint=eastwest;html=1;" vertex="1" parent="1">
          <mxGeometry x="2235" y="5585" width="80" height="26" as="geometry" />
        </mxCell>
        <mxCell id="eMaZXVgZZq-h9FBiVX7F-185" value="" style="outlineConnect=0;dashed=0;verticalLabelPosition=bottom;verticalAlign=top;align=center;html=1;shape=mxgraph.aws3.s3;fillColor=#E05243;gradientColor=none;" vertex="1" parent="1">
          <mxGeometry x="2730" y="5475" width="76.5" height="93" as="geometry" />
        </mxCell>
        <mxCell id="eMaZXVgZZq-h9FBiVX7F-186" value="&lt;div&gt;S3 Bucket&amp;nbsp;&amp;nbsp;&lt;/div&gt;&lt;div&gt;(Media Files like alerts, shelter photos)&lt;/div&gt;" style="text;align=center;fontStyle=1;verticalAlign=middle;spacingLeft=3;spacingRight=3;strokeColor=none;rotatable=0;points=[[0,0.5],[1,0.5]];portConstraint=eastwest;html=1;" vertex="1" parent="1">
          <mxGeometry x="2715" y="5585" width="80" height="26" as="geometry" />
        </mxCell>
        <mxCell id="eMaZXVgZZq-h9FBiVX7F-187" style="edgeStyle=orthogonalEdgeStyle;rounded=0;orthogonalLoop=1;jettySize=auto;html=1;exitX=0;exitY=0.21;exitDx=0;exitDy=0;exitPerimeter=0;" edge="1" parent="1" source="eMaZXVgZZq-h9FBiVX7F-189" target="eMaZXVgZZq-h9FBiVX7F-183">
          <mxGeometry relative="1" as="geometry" />
        </mxCell>
        <mxCell id="eMaZXVgZZq-h9FBiVX7F-188" style="edgeStyle=orthogonalEdgeStyle;rounded=0;orthogonalLoop=1;jettySize=auto;html=1;" edge="1" parent="1" source="eMaZXVgZZq-h9FBiVX7F-189" target="eMaZXVgZZq-h9FBiVX7F-206">
          <mxGeometry relative="1" as="geometry" />
        </mxCell>
        <mxCell id="eMaZXVgZZq-h9FBiVX7F-189" value="" style="outlineConnect=0;dashed=0;verticalLabelPosition=bottom;verticalAlign=top;align=center;html=1;shape=mxgraph.aws3.ec2;fillColor=#F58534;gradientColor=none;" vertex="1" parent="1">
          <mxGeometry x="2535" y="5265" width="76.5" height="93" as="geometry" />
        </mxCell>
        <mxCell id="eMaZXVgZZq-h9FBiVX7F-190" value="EC2,App logic:Auth,Maps.Weather,)" style="text;align=center;fontStyle=1;verticalAlign=middle;spacingLeft=3;spacingRight=3;strokeColor=none;rotatable=0;points=[[0,0.5],[1,0.5]];portConstraint=eastwest;html=1;" vertex="1" parent="1">
          <mxGeometry x="2409" y="5385" width="80" height="26" as="geometry" />
        </mxCell>
        <mxCell id="eMaZXVgZZq-h9FBiVX7F-191" style="edgeStyle=orthogonalEdgeStyle;rounded=0;orthogonalLoop=1;jettySize=auto;html=1;entryX=0;entryY=0.5;entryDx=0;entryDy=0;entryPerimeter=0;" edge="1" parent="1" source="eMaZXVgZZq-h9FBiVX7F-183" target="eMaZXVgZZq-h9FBiVX7F-189">
          <mxGeometry relative="1" as="geometry" />
        </mxCell>
        <mxCell id="eMaZXVgZZq-h9FBiVX7F-192" style="edgeStyle=orthogonalEdgeStyle;rounded=0;orthogonalLoop=1;jettySize=auto;html=1;entryX=1;entryY=0.5;entryDx=0;entryDy=0;entryPerimeter=0;" edge="1" parent="1" source="eMaZXVgZZq-h9FBiVX7F-189" target="eMaZXVgZZq-h9FBiVX7F-185">
          <mxGeometry relative="1" as="geometry" />
        </mxCell>
        <mxCell id="eMaZXVgZZq-h9FBiVX7F-193" value="Master" style="shape=cylinder3;whiteSpace=wrap;html=1;boundedLbl=1;backgroundOutline=1;size=15;" vertex="1" parent="1">
          <mxGeometry x="1975" y="5310" width="60" height="80" as="geometry" />
        </mxCell>
        <mxCell id="eMaZXVgZZq-h9FBiVX7F-194" value="Slaves" style="shape=cylinder3;whiteSpace=wrap;html=1;boundedLbl=1;backgroundOutline=1;size=15;" vertex="1" parent="1">
          <mxGeometry x="1855" y="5450" width="60" height="80" as="geometry" />
        </mxCell>
        <mxCell id="eMaZXVgZZq-h9FBiVX7F-195" value="Slaves" style="shape=cylinder3;whiteSpace=wrap;html=1;boundedLbl=1;backgroundOutline=1;size=15;" vertex="1" parent="1">
          <mxGeometry x="2100" y="5455" width="60" height="80" as="geometry" />
        </mxCell>
        <mxCell id="eMaZXVgZZq-h9FBiVX7F-196" value="Slaves" style="shape=cylinder3;whiteSpace=wrap;html=1;boundedLbl=1;backgroundOutline=1;size=15;" vertex="1" parent="1">
          <mxGeometry x="1980" y="5455" width="60" height="80" as="geometry" />
        </mxCell>
        <mxCell id="eMaZXVgZZq-h9FBiVX7F-197" value="Replication" style="text;align=center;fontStyle=1;verticalAlign=middle;spacingLeft=3;spacingRight=3;strokeColor=none;rotatable=0;points=[[0,0.5],[1,0.5]];portConstraint=eastwest;html=1;" vertex="1" parent="1">
          <mxGeometry x="1885" y="5337" width="80" height="26" as="geometry" />
        </mxCell>
        <mxCell id="eMaZXVgZZq-h9FBiVX7F-198" style="edgeStyle=orthogonalEdgeStyle;rounded=0;orthogonalLoop=1;jettySize=auto;html=1;exitX=1;exitY=0.5;exitDx=0;exitDy=0;" edge="1" parent="1" source="eMaZXVgZZq-h9FBiVX7F-199" target="eMaZXVgZZq-h9FBiVX7F-183">
          <mxGeometry relative="1" as="geometry">
            <Array as="points">
              <mxPoint x="2205" y="5420" />
              <mxPoint x="2205" y="5521" />
            </Array>
          </mxGeometry>
        </mxCell>
        <mxCell id="eMaZXVgZZq-h9FBiVX7F-199" value="" style="rounded=0;whiteSpace=wrap;html=1;fillColor=none;" vertex="1" parent="1">
          <mxGeometry x="1790" y="5293" width="410" height="260" as="geometry" />
        </mxCell>
        <mxCell id="eMaZXVgZZq-h9FBiVX7F-200" style="edgeStyle=orthogonalEdgeStyle;rounded=0;orthogonalLoop=1;jettySize=auto;html=1;exitX=0.5;exitY=1;exitDx=0;exitDy=0;exitPerimeter=0;entryX=1.008;entryY=0.45;entryDx=0;entryDy=0;entryPerimeter=0;" edge="1" parent="1" source="eMaZXVgZZq-h9FBiVX7F-183" target="eMaZXVgZZq-h9FBiVX7F-199">
          <mxGeometry relative="1" as="geometry">
            <Array as="points">
              <mxPoint x="2273" y="5573" />
              <mxPoint x="2219" y="5573" />
              <mxPoint x="2219" y="5407" />
            </Array>
          </mxGeometry>
        </mxCell>
        <mxCell id="eMaZXVgZZq-h9FBiVX7F-201" style="edgeStyle=orthogonalEdgeStyle;rounded=0;orthogonalLoop=1;jettySize=auto;html=1;exitX=0.95;exitY=0.95;exitDx=0;exitDy=0;exitPerimeter=0;entryX=0;entryY=0.5;entryDx=0;entryDy=0;entryPerimeter=0;" edge="1" parent="1" source="eMaZXVgZZq-h9FBiVX7F-183" target="eMaZXVgZZq-h9FBiVX7F-185">
          <mxGeometry relative="1" as="geometry" />
        </mxCell>
        <mxCell id="eMaZXVgZZq-h9FBiVX7F-202" value="" style="image;aspect=fixed;html=1;points=[];align=center;fontSize=12;image=img/lib/azure2/app_services/CDN_Profiles.svg;" vertex="1" parent="1">
          <mxGeometry x="2955" y="5530" width="68" height="40" as="geometry" />
        </mxCell>
        <mxCell id="eMaZXVgZZq-h9FBiVX7F-203" value="CDN" style="text;html=1;align=center;verticalAlign=middle;whiteSpace=wrap;rounded=0;" vertex="1" parent="1">
          <mxGeometry x="2963" y="5587.5" width="60" height="30" as="geometry" />
        </mxCell>
        <mxCell id="eMaZXVgZZq-h9FBiVX7F-204" value="Data center&lt;div&gt;&lt;br&gt;&lt;/div&gt;" style="text;html=1;align=center;verticalAlign=middle;whiteSpace=wrap;rounded=0;fontSize=20;" vertex="1" parent="1">
          <mxGeometry x="2175" y="5130" width="60" height="30" as="geometry" />
        </mxCell>
        <mxCell id="eMaZXVgZZq-h9FBiVX7F-205" value="" style="aspect=fixed;sketch=0;html=1;dashed=0;whitespace=wrap;verticalLabelPosition=bottom;verticalAlign=top;fillColor=#2875E2;strokeColor=#ffffff;points=[[0.005,0.63,0],[0.1,0.2,0],[0.9,0.2,0],[0.5,0,0],[0.995,0.63,0],[0.72,0.99,0],[0.5,1,0],[0.28,0.99,0]];shape=mxgraph.kubernetes.icon2;kubernetesLabel=1;prIcon=api" vertex="1" parent="1">
          <mxGeometry x="3140" y="5492" width="70.83" height="68" as="geometry" />
        </mxCell>
        <mxCell id="eMaZXVgZZq-h9FBiVX7F-206" value="" style="sketch=0;html=1;aspect=fixed;strokeColor=none;shadow=0;fillColor=#3B8DF1;verticalAlign=top;labelPosition=center;verticalLabelPosition=bottom;shape=mxgraph.gcp2.maps_api" vertex="1" parent="1">
          <mxGeometry x="3130" y="5295" width="61" height="100" as="geometry" />
        </mxCell>
        <mxCell id="eMaZXVgZZq-h9FBiVX7F-207" style="edgeStyle=orthogonalEdgeStyle;rounded=0;orthogonalLoop=1;jettySize=auto;html=1;entryX=0.28;entryY=0.99;entryDx=0;entryDy=0;entryPerimeter=0;" edge="1" parent="1" source="eMaZXVgZZq-h9FBiVX7F-189" target="eMaZXVgZZq-h9FBiVX7F-205">
          <mxGeometry relative="1" as="geometry" />
        </mxCell>
        <mxCell id="eMaZXVgZZq-h9FBiVX7F-211" style="edgeStyle=orthogonalEdgeStyle;rounded=0;orthogonalLoop=1;jettySize=auto;html=1;" edge="1" parent="1" source="eMaZXVgZZq-h9FBiVX7F-208" target="eMaZXVgZZq-h9FBiVX7F-162">
          <mxGeometry relative="1" as="geometry">
            <mxPoint x="2540" y="4690" as="targetPoint" />
            <Array as="points">
              <mxPoint x="2550" y="4750" />
            </Array>
          </mxGeometry>
        </mxCell>
        <mxCell id="eMaZXVgZZq-h9FBiVX7F-208" value="" style="rounded=0;whiteSpace=wrap;html=1;fillColor=none;" vertex="1" parent="1">
          <mxGeometry x="1760" y="5217.5" width="1580" height="400" as="geometry" />
        </mxCell>
        <mxCell id="eMaZXVgZZq-h9FBiVX7F-209" value="Weather API" style="text;align=center;fontStyle=1;verticalAlign=middle;spacingLeft=3;spacingRight=3;strokeColor=none;rotatable=0;points=[[0,0.5],[1,0.5]];portConstraint=eastwest;html=1;" vertex="1" parent="1">
          <mxGeometry x="3135.41" y="5587.5" width="80" height="26" as="geometry" />
        </mxCell>
        <mxCell id="eMaZXVgZZq-h9FBiVX7F-210" value="Google Maps API" style="text;align=center;fontStyle=1;verticalAlign=middle;spacingLeft=3;spacingRight=3;strokeColor=none;rotatable=0;points=[[0,0.5],[1,0.5]];portConstraint=eastwest;html=1;" vertex="1" parent="1">
          <mxGeometry x="3120.5" y="5424" width="80" height="26" as="geometry" />
        </mxCell>
      </root>
    </mxGraphModel>
  </diagram>
</mxfile>
